External Loads File
version=1
nRows=93
nColumns=13
Range=5.000000e-03-10 seconds
endheader
time 	forceRightX 	forceRightY 	forceRightZ 	pointRightX 	pointRightY 	pointRightZ 	forceLeftX 	forceLeftY 	forceLeftZ 	pointLeftX 	pointLeftY 	pointLeftZ 		
0.005000 -91.996610 181.222026 -0.000000 0.303588 0.388662 -0.105282 1.929710 256.769634 -0.000000 0.029808 0.250243 -0.341974
0.010000 -93.361594 181.701356 -0.000000 0.303785 0.388480 -0.105458 3.981630 258.169730 -0.000000 0.029784 0.250440 -0.341989
0.015000 -94.689282 182.156617 -0.000000 0.303810 0.388278 -0.105484 5.827698 259.500752 -0.000000 0.029714 0.250632 -0.342011
0.020000 -95.889399 182.585423 -0.000000 0.303783 0.388065 -0.105474 7.404558 260.723346 -0.000000 0.029651 0.250833 -0.342018
0.025000 -97.545181 182.632447 -0.000000 0.303741 0.388242 -0.105433 7.783913 261.846725 -0.000000 0.029252 0.250104 -0.341679
0.030000 -98.575248 182.840654 -0.000000 0.303545 0.388107 -0.105135 8.500634 262.813004 -0.000000 0.029140 0.250115 -0.341592
0.035000 -99.236300 183.070873 -0.000000 0.303801 0.387933 -0.105362 9.231907 263.611563 -0.000000 0.029059 0.250208 -0.341524
0.040000 -99.748488 183.215322 -0.000000 0.303831 0.387631 -0.105384 9.719676 264.231510 -0.000000 0.028996 0.250306 -0.341455
0.045000 -100.184908 183.256730 -0.000000 0.303868 0.387457 -0.105383 9.924255 264.672484 -0.000000 0.028919 0.250438 -0.341433
0.050000 -100.571208 183.211570 -0.000000 0.303915 0.387346 -0.105361 9.896139 264.964229 -0.000000 0.028869 0.250553 -0.341423
0.055000 -100.856600 183.141941 -0.000000 0.303934 0.387233 -0.105341 9.806745 265.154129 -0.000000 0.028814 0.250704 -0.341415
0.060000 -101.084660 183.057021 -0.000000 0.303955 0.387115 -0.105331 9.660951 265.288062 -0.000000 0.028776 0.250807 -0.341414
0.065000 -101.253616 182.986227 -0.000000 0.303955 0.387047 -0.105346 9.480425 265.387511 -0.000000 0.028734 0.250912 -0.341411
0.070000 -101.348960 182.960932 -0.000000 0.303955 0.386972 -0.105350 9.282476 265.456627 -0.000000 0.028710 0.250987 -0.341406
0.075000 -101.380136 182.995412 -0.000000 0.303960 0.386922 -0.105359 9.057688 265.496812 -0.000000 0.028679 0.251044 -0.341406
0.080000 -101.367516 183.094329 -0.000000 0.303930 0.386872 -0.105361 8.793090 265.512308 -0.000000 0.028665 0.251074 -0.341392
0.085000 -101.327106 183.259503 -0.000000 0.303893 0.386857 -0.105372 8.487275 265.504637 -0.000000 0.028659 0.251092 -0.341390
0.090000 -101.269535 183.487994 -0.000000 0.303857 0.386857 -0.105358 8.155298 265.473831 -0.000000 0.028671 0.251101 -0.341388
0.095000 -101.025532 183.864213 -0.000000 0.303824 0.386512 -0.105360 8.083754 265.423806 -0.000000 0.028679 0.251073 -0.341377
0.100000 -101.152735 184.060091 -0.000000 0.303794 0.386865 -0.105359 7.506881 265.403962 -0.000000 0.028698 0.251077 -0.341386
0.105000 -101.104234 184.354794 -0.000000 0.303754 0.386873 -0.105382 7.237835 265.417569 -0.000000 0.028706 0.251045 -0.341375
0.110000 -101.061543 184.644268 -0.000000 0.303704 0.386883 -0.105356 7.028877 265.493001 -0.000000 0.028734 0.251017 -0.341380
0.115000 -101.027603 184.942492 -0.000000 0.303669 0.386909 -0.105364 6.887675 265.642686 -0.000000 0.028748 0.250984 -0.341368
0.120000 -101.040517 185.251325 -0.000000 0.303621 0.386950 -0.105356 6.764692 265.868861 -0.000000 0.028768 0.250934 -0.341361
0.125000 -101.083482 185.596043 -0.000000 0.303565 0.386973 -0.105355 6.681109 266.162483 -0.000000 0.028766 0.250871 -0.341367
0.130000 -101.180840 185.962699 -0.000000 0.303503 0.387026 -0.105368 6.586701 266.512792 -0.000000 0.028778 0.250833 -0.341364
0.135000 -101.343836 186.327178 -0.000000 0.303429 0.387052 -0.105373 6.442461 266.909199 -0.000000 0.028792 0.250740 -0.341354
0.140000 -101.566775 186.668946 -0.000000 0.303344 0.387110 -0.105377 6.253271 267.347366 -0.000000 0.028803 0.250649 -0.341377
0.145000 -101.804355 186.995543 -0.000000 0.303280 0.387152 -0.105377 6.112554 267.828793 -0.000000 0.028808 0.250572 -0.341358
0.150000 -102.119576 187.264495 -0.000000 0.303210 0.387240 -0.105373 5.966310 268.353932 -0.000000 0.028817 0.250478 -0.341350
0.155000 -102.486890 187.484945 -0.000000 0.303132 0.387311 -0.105333 5.859916 268.902955 -0.000000 0.028828 0.250343 -0.341337
0.160000 -102.881557 187.664979 -0.000000 0.303069 0.387430 -0.105329 5.793792 269.437560 -0.000000 0.028842 0.250236 -0.341343
0.165000 -103.294747 187.802954 -0.000000 0.302989 0.387573 -0.105306 5.720724 269.919056 -0.000000 0.028847 0.250117 -0.341351
0.170000 -103.670503 187.920942 -0.000000 0.302918 0.387707 -0.105306 5.675644 270.329899 -0.000000 0.028862 0.250005 -0.341368
0.175000 -104.030160 187.997406 -0.000000 0.302855 0.387883 -0.105312 5.619795 270.683370 -0.000000 0.028873 0.249879 -0.341373
0.180000 -104.376086 188.025457 -0.000000 0.302774 0.388078 -0.105354 5.571781 271.009779 -0.000000 0.028880 0.249724 -0.341425
0.185000 -104.461795 188.142129 -0.000000 0.302696 0.387915 -0.105356 5.906842 271.333732 -0.000000 0.028875 0.249589 -0.341429
0.190000 -104.700019 188.120935 -0.000000 0.302617 0.388079 -0.105368 6.010775 271.686821 -0.000000 0.028881 0.249411 -0.341448
0.195000 -104.871252 188.091229 -0.000000 0.302540 0.388297 -0.105393 6.141726 272.060753 -0.000000 0.028892 0.249242 -0.341443
0.200000 -105.142835 187.975681 -0.000000 0.302481 0.388905 -0.105352 5.996008 272.439477 -0.000000 0.028912 0.249074 -0.341422
0.205000 -105.072319 188.041504 -0.000000 0.302416 0.389085 -0.105354 6.182378 272.778909 -0.000000 0.028928 0.248887 -0.341408
0.210000 -104.931850 188.152267 -0.000000 0.302372 0.389255 -0.105332 6.317829 273.069368 -0.000000 0.028939 0.248662 -0.341376
0.215000 -104.795525 188.273296 -0.000000 0.302289 0.389435 -0.105367 6.338499 273.311511 -0.000000 0.028976 0.248428 -0.341375
0.220000 -104.700947 188.381051 -0.000000 0.302258 0.389731 -0.105339 6.241698 273.510843 -0.000000 0.029009 0.248254 -0.341370
0.225000 -104.368631 188.622496 -0.000000 0.302182 0.389476 -0.105339 6.491230 273.665490 -0.000000 0.029031 0.248099 -0.341377
0.230000 -104.412240 188.649943 -0.000000 0.302128 0.389686 -0.105308 6.271834 273.808571 -0.000000 0.029061 0.247941 -0.341386
0.235000 -104.603874 188.586958 -0.000000 0.302113 0.389917 -0.105268 5.990204 273.944506 -0.000000 0.029099 0.247783 -0.341338
0.240000 -104.946511 188.435509 -0.000000 0.302062 0.390100 -0.105246 5.680650 274.077996 -0.000000 0.029127 0.247602 -0.341341
0.245000 -105.420950 188.213564 -0.000000 0.302020 0.390311 -0.105239 5.351809 274.201155 -0.000000 0.029162 0.247456 -0.341342
0.250000 -106.253645 187.796910 -0.000000 0.301978 0.390960 -0.105249 4.614021 274.309498 -0.000000 0.029187 0.247285 -0.341333
0.255000 -106.847188 187.520590 -0.000000 0.301932 0.391108 -0.105281 4.274266 274.388171 -0.000000 0.029221 0.247150 -0.341336
0.260000 -107.521288 187.200595 -0.000000 0.301680 0.391243 -0.105023 3.807036 274.453553 -0.000000 0.029244 0.246989 -0.341341
0.265000 -107.965394 187.009586 -0.000000 0.301900 0.391347 -0.105293 3.608179 274.502373 -0.000000 0.029276 0.246847 -0.341363
0.270000 -108.391960 186.819468 -0.000000 0.301836 0.391478 -0.105314 3.306742 274.539555 -0.000000 0.029297 0.246737 -0.341364
0.275000 -108.646989 186.712271 -0.000000 0.301823 0.391585 -0.105302 3.078705 274.568035 -0.000000 0.029330 0.246618 -0.341344
0.280000 -108.722894 186.684474 -0.000000 0.301768 0.391682 -0.105299 2.907582 274.597799 -0.000000 0.029338 0.246502 -0.341366
0.285000 -108.640118 186.717027 -0.000000 0.301738 0.391806 -0.105303 2.757218 274.633940 -0.000000 0.029352 0.246366 -0.341356
0.290000 -108.346071 186.836857 -0.000000 0.301705 0.391891 -0.105309 2.711135 274.670435 -0.000000 0.029348 0.246284 -0.341373
0.295000 -107.922279 187.000012 -0.000000 0.301687 0.391953 -0.105313 2.681032 274.702191 -0.000000 0.029361 0.246210 -0.341339
0.300000 -107.434917 187.182279 -0.000000 0.301693 0.392045 -0.105282 2.650654 274.735917 -0.000000 0.029351 0.246164 -0.341369
0.305000 -106.957811 187.361108 -0.000000 0.301671 0.392111 -0.105296 2.627662 274.795370 -0.000000 0.029357 0.246124 -0.341382
0.310000 -106.525195 187.534022 -0.000000 0.301649 0.392163 -0.105301 2.660278 274.912047 -0.000000 0.029342 0.246087 -0.341378
0.315000 -106.149895 187.705537 -0.000000 0.301630 0.392197 -0.105308 2.766680 275.103594 -0.000000 0.029337 0.246071 -0.341357
0.320000 -105.823231 187.889842 -0.000000 0.301611 0.392224 -0.105298 2.930131 275.357705 -0.000000 0.029318 0.246068 -0.341359
0.325000 -105.544580 188.096040 -0.000000 0.301585 0.392229 -0.105303 3.085841 275.637169 -0.000000 0.029315 0.246056 -0.341401
0.330000 -105.282637 188.347675 -0.000000 0.301568 0.392214 -0.105300 3.222025 275.897870 -0.000000 0.029306 0.246047 -0.341349
0.335000 -105.084272 188.617346 -0.000000 0.301534 0.392222 -0.105297 3.253975 276.109843 -0.000000 0.029299 0.246037 -0.341343
0.340000 -104.947675 188.897113 -0.000000 0.301487 0.392215 -0.105302 3.217384 276.262301 -0.000000 0.029306 0.246039 -0.341350
0.345000 -104.909523 189.153861 -0.000000 0.301463 0.392211 -0.105281 3.126354 276.360892 -0.000000 0.029306 0.246030 -0.341356
0.350000 -105.011424 189.352476 -0.000000 0.301406 0.392218 -0.105270 2.998152 276.421486 -0.000000 0.029296 0.246021 -0.341347
0.355000 -105.227702 189.495887 -0.000000 0.301377 0.392185 -0.105264 2.926221 276.465301 -0.000000 0.029295 0.246004 -0.341348
0.360000 -105.328492 189.700389 -0.000000 0.301307 0.391753 -0.105297 3.248089 276.510645 -0.000000 0.029293 0.246030 -0.341334
0.365000 -105.729116 189.726696 -0.000000 0.301267 0.391729 -0.105289 3.299641 276.578118 -0.000000 0.029286 0.246044 -0.341360
0.370000 -106.146199 189.726599 -0.000000 0.301228 0.391709 -0.105299 3.393629 276.668364 -0.000000 0.029279 0.246054 -0.341370
0.375000 -106.480365 189.749298 -0.000000 0.301214 0.391660 -0.105296 3.555056 276.782632 -0.000000 0.029268 0.246056 -0.341353
0.380000 -106.681123 189.814133 -0.000000 0.301189 0.391633 -0.105280 3.740590 276.922708 -0.000000 0.029250 0.246084 -0.341364
0.385000 -106.701576 189.938908 -0.000000 0.301155 0.391580 -0.105263 3.944637 277.090787 -0.000000 0.029225 0.246094 -0.341363
0.390000 -106.515818 190.134491 -0.000000 0.301139 0.391500 -0.105255 4.206227 277.287443 -0.000000 0.029213 0.246135 -0.341376
0.395000 -106.203552 190.359762 -0.000000 0.301127 0.391431 -0.105259 4.458632 277.501537 -0.000000 0.029188 0.246174 -0.341348
0.400000 -105.831076 190.587709 -0.000000 0.301119 0.391385 -0.105251 4.652654 277.704827 -0.000000 0.029176 0.246216 -0.341355
0.405000 -105.426633 190.815166 -0.000000 0.301114 0.391331 -0.105252 4.785835 277.868215 -0.000000 0.029158 0.246249 -0.341363
0.410000 -105.023533 191.033878 -0.000000 0.301121 0.391272 -0.105269 4.854660 277.974946 -0.000000 0.029133 0.246278 -0.341355
0.415000 -104.670332 191.223280 -0.000000 0.301122 0.391225 -0.105264 4.842677 278.017276 -0.000000 0.029121 0.246324 -0.341363
0.420000 -104.386473 191.376998 -0.000000 0.301133 0.391193 -0.105279 4.784867 277.992504 -0.000000 0.029109 0.246411 -0.341347
0.425000 -104.252225 191.454891 -0.000000 0.301136 0.391165 -0.105284 4.627534 277.907917 -0.000000 0.029097 0.246463 -0.341375
0.430000 -104.295076 191.443209 -0.000000 0.301138 0.391146 -0.105272 4.368190 277.778113 -0.000000 0.029081 0.246464 -0.341365
0.435000 -104.443125 191.378695 -0.000000 0.301134 0.391118 -0.105270 4.108443 277.620377 -0.000000 0.029077 0.246516 -0.341368
0.440000 -104.761606 191.220392 -0.000000 0.301125 0.391112 -0.105271 3.723642 277.453182 -0.000000 0.029069 0.246471 -0.341365
0.445000 -105.149843 191.014964 -0.000000 0.301108 0.391120 -0.105259 3.324641 277.284563 -0.000000 0.029080 0.246448 -0.341368
0.450000 -105.559580 190.780089 -0.000000 0.301092 0.391144 -0.105276 2.960686 277.123768 -0.000000 0.029078 0.246442 -0.341360
0.455000 -106.008572 190.500465 -0.000000 0.301073 0.391180 -0.105262 2.604894 276.992699 -0.000000 0.029099 0.246389 -0.341366
0.460000 -106.386680 190.235525 -0.000000 0.301043 0.391209 -0.105268 2.406410 276.920008 -0.000000 0.029103 0.246370 -0.341375
0.465000 -106.707246 189.977904 -0.000000 0.301034 0.391237 -0.105278 2.292685 276.926408 -0.000000 0.029114 0.246270 -0.341374
